<svg width="44" height="40" viewBox="0 0 44 40" fill="none" xmlns="http://www.w3.org/2000/svg">
<path d="M2 2V0.5C1.17157 0.5 0.5 1.17157 0.5 2L2 2ZM41.9998 2H43.4998C43.4998 1.17157 42.8282 0.5 41.9998 0.5V2ZM2 12H0.5V13.5H2V12ZM41.9998 12V13.5H43.4998V12H41.9998ZM2 3.5H41.9998V0.5H2V3.5ZM2 13.5H41.9998V10.5H2V13.5ZM3.5 12V2H0.5V12H3.5ZM40.4998 2V12H43.4998V2H40.4998Z" fill="white"/>
<path d="M4 38H2.5C2.5 38.8284 3.17157 39.5 4 39.5V38ZM27.0009 28L25.9401 26.9394L24.8797 28L25.9401 29.0606L27.0009 28ZM2.5 12V38H5.5V12H2.5ZM41.5 22V12H38.5V22H41.5ZM27.0009 29.5H34.0009V26.5H27.0009V29.5ZM37.5009 33C37.5009 34.933 35.9338 36.5 34.0009 36.5V39.5C37.5907 39.5 40.5009 36.5898 40.5009 33H37.5009ZM34.0009 29.5C35.9338 29.5 37.5009 31.067 37.5009 33H40.5009C40.5009 29.4102 37.5907 26.5 34.0009 26.5V29.5ZM30.9392 21.9394L25.9401 26.9394L28.0616 29.0606L33.0608 24.0606L30.9392 21.9394ZM33.0608 31.9394L28.0616 26.9394L25.9401 29.0606L30.9392 34.0606L33.0608 31.9394ZM4 39.5H34.0009V36.5H4V39.5Z" fill="white"/>
<path d="M17 18H27" stroke="white" stroke-width="3"/>
</svg>
