<svg width="40" height="44" viewBox="0 0 40 44" fill="none" xmlns="http://www.w3.org/2000/svg">
<path d="M32 2L33.0267 0.906418C32.5921 0.498384 31.9571 0.38645 31.4091 0.621282L32 2ZM32 32L31.4091 33.3787C31.9571 33.6136 32.5921 33.5016 33.0267 33.0936L32 32ZM11 11V12.5C11.2031 12.5 11.4042 12.4587 11.5909 12.3787L11 11ZM11 23L11.5909 21.6213C11.4042 21.5413 11.2031 21.5 11 21.5V23ZM2 23H0.5V24.5H2V23ZM2 11V9.5H0.5V11H2ZM30.9733 3.09358C34.2829 6.20071 36.5 11.2348 36.5 17H39.5C39.5 10.4977 37.0038 4.64022 33.0267 0.906418L30.9733 3.09358ZM36.5 17C36.5 22.7652 34.2829 27.7993 30.9733 30.9064L33.0267 33.0936C37.0038 29.3598 39.5 23.5023 39.5 17H36.5ZM31.4091 0.621282L10.4091 9.62128L11.5909 12.3787L32.5909 3.37872L31.4091 0.621282ZM32.5909 30.6213L11.5909 21.6213L10.4091 24.3787L31.4091 33.3787L32.5909 30.6213ZM11 21.5H2V24.5H11V21.5ZM3.5 23V11H0.5V23H3.5ZM2 12.5H11V9.5H2V12.5Z" fill="white"/>
<path d="M15.9331 42L14.7888 42.9699C15.0589 43.2886 15.4498 43.4802 15.8672 43.4986C16.2846 43.5169 16.6908 43.3603 16.9878 43.0665L15.9331 42ZM21.9997 36L23.0545 37.0665C23.376 36.7485 23.5369 36.3025 23.4924 35.8525C23.448 35.4025 23.2029 34.9966 22.8254 34.7477L21.9997 36ZM10 35L8.50001 34.9957L8.49844 35.5483L8.85573 35.9699L10 35ZM15.9331 32L14.5869 32.6618L14.7669 33.0278L15.1074 33.2523L15.9331 32ZM16.9878 43.0665L23.0545 37.0665L20.9449 34.9335L14.8783 40.9335L16.9878 43.0665ZM8.53126 23.9957L8.50001 34.9957L11.5 35.0043L11.5312 24.0043L8.53126 23.9957ZM8.85573 35.9699L14.7888 42.9699L17.0773 41.0301L11.1443 34.0301L8.85573 35.9699ZM10.6539 24.6618L14.5869 32.6618L17.2792 31.3382L13.3461 23.3382L10.6539 24.6618ZM15.1074 33.2523L21.174 37.2523L22.8254 34.7477L16.7587 30.7477L15.1074 33.2523Z" fill="white"/>
<path d="M11 23V11" stroke="white" stroke-width="3" stroke-linecap="round" stroke-linejoin="round"/>
</svg>
