<svg width="36" height="44" viewBox="0 0 36 44" fill="none" xmlns="http://www.w3.org/2000/svg">
<path d="M18 2L18.9 0.8C18.5143 0.510701 18.013 0.424464 17.5527 0.56823C17.0925 0.711996 16.7294 1.06824 16.577 1.52566L18 2ZM10 9.5L11.1211 8.50345L10 7.2422L8.87889 8.50345L10 9.5ZM14 14L12.8789 14.9965L14.6026 16.9357L15.423 14.4743L14 14ZM32.5 26C32.5 34.0081 26.0081 40.5 18 40.5V43.5C27.665 43.5 35.5 35.665 35.5 26H32.5ZM18 40.5C9.99187 40.5 3.5 34.0081 3.5 26H0.5C0.5 35.665 8.33502 43.5 18 43.5V40.5ZM18 2C17.1 3.2 17.0998 3.19983 17.0996 3.19971C17.0996 3.19974 17.0995 3.19966 17.0996 3.1997C17.0997 3.19978 17.1001 3.20005 17.1007 3.20049C17.1018 3.20138 17.104 3.20299 17.107 3.20532C17.1132 3.20997 17.1231 3.21749 17.1367 3.22783C17.1638 3.24851 17.2055 3.28046 17.2608 3.32332C17.3714 3.40905 17.5364 3.53836 17.7479 3.70833C18.1711 4.04837 18.7798 4.55051 19.5122 5.19137C20.9792 6.47494 22.9314 8.30559 24.8789 10.4965C28.8443 14.9576 32.5 20.5925 32.5 26H35.5C35.5 19.4075 31.1557 13.0424 27.1211 8.50345C25.0686 6.19441 23.0208 4.27506 21.4878 2.93363C20.7202 2.26199 20.0789 1.73288 19.6271 1.3698C19.4011 1.1882 19.2223 1.04798 19.0985 0.952073C19.0367 0.904112 18.9885 0.867217 18.9551 0.841753C18.9384 0.82902 18.9254 0.819144 18.9161 0.812171C18.9115 0.808684 18.9079 0.805922 18.9052 0.803892C18.9038 0.802877 18.9027 0.802045 18.9019 0.801396C18.9014 0.801071 18.901 0.800722 18.9007 0.80056C18.9003 0.800257 18.9 0.8 18 2ZM3.5 26C3.5 20.5925 7.15571 14.9576 11.1211 10.4965L8.87889 8.50345C4.84429 13.0424 0.5 19.4075 0.5 26H3.5ZM8.87889 10.4965L12.8789 14.9965L15.1211 13.0035L11.1211 8.50345L8.87889 10.4965ZM15.423 14.4743L19.423 2.47434L16.577 1.52566L12.577 13.5257L15.423 14.4743Z" fill="white"/>
<path d="M12 34L24 22" stroke="white" stroke-width="3" stroke-linejoin="round"/>
<path d="M13 23H13.0179M22.9835 33H23.0014" stroke="white" stroke-width="4" stroke-linecap="square" stroke-linejoin="round"/>
</svg>
