<svg width="14" height="13" viewBox="0 0 14 13" fill="none" xmlns="http://www.w3.org/2000/svg">
<path d="M4.76634 10.774L4.92907 10.382L4.76001 10.3118L4.59293 10.3866L4.76634 10.774ZM2.50284 11.7873L2.09302 11.677C2.05044 11.8352 2.10273 12.0038 2.22737 12.1101C2.352 12.2165 2.52671 12.2416 2.67625 12.1746L2.50284 11.7873ZM3.06872 9.68446L3.47854 9.79475L3.54494 9.54802L3.35797 9.37389L3.06872 9.68446ZM7.02984 0.0453548C3.69134 0.0453548 0.946688 2.62217 0.946688 5.84557H1.7955C1.7955 3.13147 4.11857 0.894167 7.02984 0.894167V0.0453548ZM12.2642 5.84557C12.2642 8.55967 9.94112 10.797 7.02984 10.797V11.6458C10.3683 11.6458 13.113 9.06897 13.113 5.84557H12.2642ZM7.02984 0.894167C9.94112 0.894167 12.2642 3.13147 12.2642 5.84557H13.113C13.113 2.62217 10.3683 0.0453548 7.02984 0.0453548V0.894167ZM4.60362 11.1659C5.34782 11.4749 6.16863 11.6458 7.02984 11.6458V10.797C6.28153 10.797 5.57122 10.6486 4.92907 10.382L4.60362 11.1659ZM4.59293 10.3866L2.32944 11.3999L2.67625 12.1746L4.93975 11.1613L4.59293 10.3866ZM0.946688 5.84557C0.946688 7.47535 1.65196 8.94492 2.77947 9.99503L3.35797 9.37389C2.39027 8.47262 1.7955 7.22309 1.7955 5.84557H0.946688ZM2.91267 11.8975L3.47854 9.79475L2.65889 9.57417L2.09302 11.677L2.91267 11.8975Z" fill="black"/>
<path d="M7.02756 6.12851H7.03264M9.28852 6.12851H9.2936M4.7666 6.12851H4.77168" stroke="black" stroke-width="1.13175" stroke-linecap="square" stroke-linejoin="round"/>
</svg>
