<svg width="14" height="14" viewBox="0 0 14 14" fill="none" xmlns="http://www.w3.org/2000/svg">
<g clip-path="url(#clip0_194_5364)">
<path d="M1.20898 6.27969V11.9384H4.03836V6.27969H1.20898Z" stroke="black" stroke-width="0.848812" stroke-linecap="round" stroke-linejoin="round"/>
<path d="M7.99921 2.31857L8.29931 2.01847C8.21954 1.9387 8.11129 1.89397 7.99847 1.89416C7.88566 1.89436 7.77756 1.93946 7.69807 2.01951L7.99921 2.31857ZM4.03809 6.30726L3.73695 6.00821C3.65799 6.08771 3.61368 6.19521 3.61368 6.30726H4.03809ZM10.8286 11.9384L10.8286 12.3629L11.1439 12.3629L11.2349 12.0609L10.8286 11.9384ZM4.03809 11.9384H3.61368C3.61368 12.1728 3.80369 12.3628 4.03809 12.3628L4.03809 11.9384ZM12.5262 6.30726L12.9325 6.42976C12.9713 6.30122 12.9469 6.16192 12.8669 6.05415C12.7868 5.94638 12.6605 5.88286 12.5262 5.88286V6.30726ZM8.28215 6.30726L7.87532 6.18639L7.71331 6.73167H8.28215V6.30726ZM9.13096 3.45032L9.53779 3.57119C9.58214 3.42191 9.54117 3.26033 9.43106 3.15022L9.13096 3.45032ZM7.69807 2.01951L3.73695 6.00821L4.33923 6.60632L8.30035 2.61763L7.69807 2.01951ZM10.8286 11.514L4.03809 11.514L4.03809 12.3628L10.8286 12.3629L10.8286 11.514ZM11.2349 12.0609L12.9325 6.42976L12.1199 6.18476L10.4222 11.8159L11.2349 12.0609ZM12.5262 5.88286H8.28215V6.73167H12.5262V5.88286ZM8.68898 6.42813L9.53779 3.57119L8.72413 3.32945L7.87532 6.18639L8.68898 6.42813ZM9.43106 3.15022L8.29931 2.01847L7.69911 2.61867L8.83086 3.75042L9.43106 3.15022ZM4.46249 11.9384V6.30726H3.61368V11.9384H4.46249Z" fill="black"/>
</g>
<defs>
<clipPath id="clip0_194_5364">
<rect width="13.581" height="13.581" fill="white" transform="translate(0.0771484 0.338013)"/>
</clipPath>
</defs>
</svg>
