<svg width="18" height="13" viewBox="0 0 18 13" fill="none" xmlns="http://www.w3.org/2000/svg">
<path d="M2.71702 12.5H0.177268V1.15576H6.442C9.23573 1.15576 10.8273 2.39177 10.8273 4.55903C10.8273 6.40459 9.76061 7.50515 7.62722 7.70833V7.84378C8.64312 8.11469 9.03255 8.6565 9.45584 9.45229L11.0982 12.5H8.1521L6.59439 9.55388C6.13723 8.67343 5.71394 8.3856 4.39326 8.3856H2.71702V12.5ZM2.71702 3.44154V6.47231H6.42507C7.62722 6.47231 8.16903 6.13368 8.16903 4.94846C8.16903 3.83097 7.62722 3.44154 6.42507 3.44154H2.71702ZM14.7281 6.87867C12.8656 6.87867 11.5619 5.71039 11.5619 3.91562C11.5619 2.12086 12.8656 0.952576 14.7281 0.952576C16.6075 0.952576 17.8943 2.12086 17.8943 3.91562C17.8943 5.71039 16.6075 6.87867 14.7281 6.87867ZM14.7281 5.84584C16.2181 5.84584 16.7768 5.32096 16.7768 3.91562C16.7768 2.51029 16.2181 1.98541 14.7281 1.98541C13.255 1.98541 12.6963 2.51029 12.6963 3.91562C12.6963 5.32096 13.255 5.84584 14.7281 5.84584ZM14.2879 5.06698H13.4413V2.69654H15.0498C15.7101 2.69654 16.0826 2.95052 16.0826 3.45847C16.0826 3.89869 15.7779 4.13574 15.3884 4.13574V4.1696C15.5747 4.23733 15.6763 4.32199 15.8286 4.55903L16.1673 5.06698H15.2191L14.9143 4.55903C14.8297 4.40664 14.745 4.35585 14.5418 4.35585H14.2879V5.06698ZM14.2879 3.40767V3.7971H15.0329C15.1852 3.7971 15.253 3.72938 15.253 3.59392C15.253 3.44154 15.1852 3.40767 15.0329 3.40767H14.2879Z" fill="white"/>
</svg>
