<svg width="12" height="9" viewBox="0 0 12 9" fill="none" xmlns="http://www.w3.org/2000/svg">
<path d="M7.32423 5.82613H7.74864V5.40173H7.32423V5.82613ZM7.32423 7.80669H6.89983C6.89983 7.97553 6.9999 8.1283 7.15467 8.19576C7.30944 8.26321 7.48948 8.23251 7.61315 8.11757L7.32423 7.80669ZM7.32423 2.43088V2.85529H7.74864V2.43088H7.32423ZM7.32423 0.450321L7.61289 0.139197C7.48917 0.0244108 7.30919 -0.00616199 7.15451 0.0613304C6.99982 0.128823 6.89983 0.281553 6.89983 0.450321H7.32423ZM11.2854 4.12538L11.5743 4.43626C11.6607 4.35592 11.7098 4.24321 11.7098 4.1252C11.7097 4.00718 11.6605 3.89452 11.574 3.81425L11.2854 4.12538ZM3.61438 6.00435L3.49647 5.59666L3.49647 5.59666L3.61438 6.00435ZM1.09961 7.52376H0.675203C0.675203 7.68451 0.766027 7.83147 0.909809 7.90336C1.05359 7.97525 1.22565 7.95973 1.35425 7.86328L1.09961 7.52376ZM3.26902 6.11948L3.41931 6.51638L3.41931 6.51638L3.26902 6.11948ZM3.19555 2.68933L3.03314 2.29723L3.03314 2.29723L3.19555 2.68933ZM1.35806 4.52683L0.965957 4.36441L0.965957 4.36441L1.35806 4.52683ZM6.89983 5.82613V7.80669H7.74864V5.82613H6.89983ZM7.74864 2.43088V0.450321H6.89983V2.43088H7.74864ZM7.03558 0.761446L10.9967 4.4365L11.574 3.81425L7.61289 0.139197L7.03558 0.761446ZM7.61315 8.11757L11.5743 4.43626L10.9964 3.8145L7.03531 7.49581L7.61315 8.11757ZM7.32423 2.00648H6.19248V2.85529H7.32423V2.00648ZM7.32423 5.40173H6.19248V6.25054H7.32423V5.40173ZM6.19248 5.40173C4.90838 5.40173 4.1838 5.39787 3.49647 5.59666L3.7323 6.41205C4.27744 6.25439 4.86076 6.25054 6.19248 6.25054V5.40173ZM1.35425 7.86328C2.41963 7.06425 2.8886 6.71734 3.41931 6.51638L3.11873 5.72257C2.4496 5.97594 1.87224 6.41377 0.844966 7.18423L1.35425 7.86328ZM3.49647 5.59666C3.36892 5.63355 3.24291 5.67555 3.11873 5.72257L3.41931 6.51638C3.5222 6.47742 3.62661 6.44262 3.7323 6.41205L3.49647 5.59666ZM6.19248 2.00648C5.4073 2.00648 4.79715 2.00625 4.30586 2.03977C3.81076 2.07355 3.40545 2.14302 3.03314 2.29723L3.35797 3.08143C3.60961 2.9772 3.91176 2.91744 4.36364 2.88661C4.81934 2.85552 5.39568 2.85529 6.19248 2.85529V2.00648ZM1.52402 7.52376C1.52402 6.72696 1.52425 6.15061 1.55534 5.69492C1.58617 5.24303 1.64592 4.94088 1.75016 4.68924L0.965957 4.36441C0.811743 4.73672 0.742274 5.14204 0.708494 5.63714C0.674973 6.12842 0.675203 6.73857 0.675203 7.52376H1.52402ZM3.03314 2.29723C2.09722 2.6849 1.35363 3.42849 0.965957 4.36441L1.75016 4.68924C2.05168 3.9613 2.63003 3.38295 3.35797 3.08143L3.03314 2.29723Z" fill="black"/>
</svg>
