<svg width="18" height="15" viewBox="0 0 18 15" fill="none" xmlns="http://www.w3.org/2000/svg">
<path d="M1 6.61523C0.447715 6.61523 0 7.06295 0 7.61523C0 8.16752 0.447715 8.61523 1 8.61523V6.61523ZM17.7071 8.32234C18.0976 7.93182 18.0976 7.29865 17.7071 6.90813L11.3431 0.544167C10.9526 0.153642 10.3195 0.153642 9.92893 0.544167C9.53841 0.934691 9.53841 1.56786 9.92893 1.95838L15.5858 7.61523L9.92893 13.2721C9.53841 13.6626 9.53841 14.2958 9.92893 14.6863C10.3195 15.0768 10.9526 15.0768 11.3431 14.6863L17.7071 8.32234ZM1 8.61523H17V6.61523H1V8.61523Z" fill="white"/>
</svg>
